<mxfile host="app.diagrams.net" modified="2021-03-03T05:49:26.112Z" agent="5.0 (Macintosh)" etag="qWXPUBZv0kh_VU88XT69" version="14.4.2" type="github">
  <diagram id="eLuVJv_EfQPYATGsu1Y8" name="Page-1">
    <mxGraphModel dx="2036" dy="750" grid="1" gridSize="10" guides="1" tooltips="1" connect="1" arrows="1" fold="1" page="1" pageScale="1" pageWidth="850" pageHeight="1100" math="0" shadow="0">
      <root>
        <mxCell id="0" />
        <mxCell id="1" parent="0" />
        <mxCell id="9seu_ElrW7bkLvOsGuvo-1" value="GlobalCanvasNodeCategory&#xa;" style="swimlane;fontStyle=1;align=center;verticalAlign=top;childLayout=stackLayout;horizontal=1;startSize=26;horizontalStack=0;resizeParent=1;resizeParentMax=0;resizeLast=0;collapsible=1;marginBottom=0;" vertex="1" parent="1">
          <mxGeometry x="-40" y="112" width="210" height="60" as="geometry" />
        </mxCell>
        <mxCell id="9seu_ElrW7bkLvOsGuvo-3" value="" style="line;strokeWidth=1;fillColor=none;align=left;verticalAlign=middle;spacingTop=-1;spacingLeft=3;spacingRight=3;rotatable=0;labelPosition=right;points=[];portConstraint=eastwest;" vertex="1" parent="9seu_ElrW7bkLvOsGuvo-1">
          <mxGeometry y="26" width="210" height="8" as="geometry" />
        </mxCell>
        <mxCell id="9seu_ElrW7bkLvOsGuvo-2" value="name: string" style="text;strokeColor=none;fillColor=none;align=left;verticalAlign=top;spacingLeft=4;spacingRight=4;overflow=hidden;rotatable=0;points=[[0,0.5],[1,0.5]];portConstraint=eastwest;" vertex="1" parent="9seu_ElrW7bkLvOsGuvo-1">
          <mxGeometry y="34" width="210" height="26" as="geometry" />
        </mxCell>
        <mxCell id="9seu_ElrW7bkLvOsGuvo-189" style="edgeStyle=orthogonalEdgeStyle;rounded=0;orthogonalLoop=1;jettySize=auto;html=1;exitX=0.5;exitY=1;exitDx=0;exitDy=0;entryX=0.5;entryY=0;entryDx=0;entryDy=0;fontSize=12;" edge="1" parent="1" source="9seu_ElrW7bkLvOsGuvo-7" target="9seu_ElrW7bkLvOsGuvo-43">
          <mxGeometry relative="1" as="geometry">
            <Array as="points">
              <mxPoint x="355" y="230" />
              <mxPoint x="-11" y="230" />
            </Array>
          </mxGeometry>
        </mxCell>
        <mxCell id="9seu_ElrW7bkLvOsGuvo-191" style="edgeStyle=orthogonalEdgeStyle;rounded=0;orthogonalLoop=1;jettySize=auto;html=1;exitX=0.5;exitY=1;exitDx=0;exitDy=0;entryX=0.5;entryY=0;entryDx=0;entryDy=0;fontSize=12;" edge="1" parent="1" source="9seu_ElrW7bkLvOsGuvo-7" target="9seu_ElrW7bkLvOsGuvo-56">
          <mxGeometry relative="1" as="geometry" />
        </mxCell>
        <mxCell id="9seu_ElrW7bkLvOsGuvo-7" value="GlobalCanvasNode&#xa;" style="swimlane;fontStyle=1;align=center;verticalAlign=top;childLayout=stackLayout;horizontal=1;startSize=26;horizontalStack=0;resizeParent=1;resizeParentMax=0;resizeLast=0;collapsible=1;marginBottom=0;" vertex="1" parent="1">
          <mxGeometry x="200" y="112" width="310" height="90" as="geometry" />
        </mxCell>
        <mxCell id="9seu_ElrW7bkLvOsGuvo-10" value="catgeory: string serialized GlobalCanvasNodeCategory" style="text;strokeColor=none;fillColor=none;align=left;verticalAlign=top;spacingLeft=4;spacingRight=4;overflow=hidden;rotatable=0;points=[[0,0.5],[1,0.5]];portConstraint=eastwest;" vertex="1" parent="9seu_ElrW7bkLvOsGuvo-7">
          <mxGeometry y="26" width="310" height="34" as="geometry" />
        </mxCell>
        <mxCell id="9seu_ElrW7bkLvOsGuvo-8" value="node: GlobalCanvasNodeData" style="text;strokeColor=none;fillColor=none;align=left;verticalAlign=top;spacingLeft=4;spacingRight=4;overflow=hidden;rotatable=0;points=[[0,0.5],[1,0.5]];portConstraint=eastwest;" vertex="1" parent="9seu_ElrW7bkLvOsGuvo-7">
          <mxGeometry y="60" width="310" height="22" as="geometry" />
        </mxCell>
        <mxCell id="9seu_ElrW7bkLvOsGuvo-9" value="" style="line;strokeWidth=1;fillColor=none;align=left;verticalAlign=middle;spacingTop=-1;spacingLeft=3;spacingRight=3;rotatable=0;labelPosition=right;points=[];portConstraint=eastwest;" vertex="1" parent="9seu_ElrW7bkLvOsGuvo-7">
          <mxGeometry y="82" width="310" height="8" as="geometry" />
        </mxCell>
        <mxCell id="9seu_ElrW7bkLvOsGuvo-17" value="TypeInfo" style="swimlane;fontStyle=1;align=center;verticalAlign=top;childLayout=stackLayout;horizontal=1;startSize=26;horizontalStack=0;resizeParent=1;resizeParentMax=0;resizeLast=0;collapsible=1;marginBottom=0;" vertex="1" parent="1">
          <mxGeometry x="485" y="330" width="160" height="112" as="geometry" />
        </mxCell>
        <mxCell id="9seu_ElrW7bkLvOsGuvo-18" value="name: string" style="text;strokeColor=none;fillColor=none;align=left;verticalAlign=top;spacingLeft=4;spacingRight=4;overflow=hidden;rotatable=0;points=[[0,0.5],[1,0.5]];portConstraint=eastwest;" vertex="1" parent="9seu_ElrW7bkLvOsGuvo-17">
          <mxGeometry y="26" width="160" height="26" as="geometry" />
        </mxCell>
        <mxCell id="9seu_ElrW7bkLvOsGuvo-19" value="" style="line;strokeWidth=1;fillColor=none;align=left;verticalAlign=middle;spacingTop=-1;spacingLeft=3;spacingRight=3;rotatable=0;labelPosition=right;points=[];portConstraint=eastwest;" vertex="1" parent="9seu_ElrW7bkLvOsGuvo-17">
          <mxGeometry y="52" width="160" height="8" as="geometry" />
        </mxCell>
        <mxCell id="9seu_ElrW7bkLvOsGuvo-20" value="description: string" style="text;strokeColor=none;fillColor=none;align=left;verticalAlign=top;spacingLeft=4;spacingRight=4;overflow=hidden;rotatable=0;points=[[0,0.5],[1,0.5]];portConstraint=eastwest;" vertex="1" parent="9seu_ElrW7bkLvOsGuvo-17">
          <mxGeometry y="60" width="160" height="26" as="geometry" />
        </mxCell>
        <mxCell id="9seu_ElrW7bkLvOsGuvo-142" value="fields: [FieldInfo]" style="text;strokeColor=none;fillColor=none;align=left;verticalAlign=top;spacingLeft=4;spacingRight=4;overflow=hidden;rotatable=0;points=[[0,0.5],[1,0.5]];portConstraint=eastwest;fontSize=12;" vertex="1" parent="9seu_ElrW7bkLvOsGuvo-17">
          <mxGeometry y="86" width="160" height="26" as="geometry" />
        </mxCell>
        <mxCell id="9seu_ElrW7bkLvOsGuvo-60" style="edgeStyle=orthogonalEdgeStyle;rounded=0;orthogonalLoop=1;jettySize=auto;html=1;exitX=0.5;exitY=1;exitDx=0;exitDy=0;entryX=0.5;entryY=0;entryDx=0;entryDy=0;" edge="1" parent="1" source="9seu_ElrW7bkLvOsGuvo-43" target="9seu_ElrW7bkLvOsGuvo-50">
          <mxGeometry relative="1" as="geometry" />
        </mxCell>
        <mxCell id="9seu_ElrW7bkLvOsGuvo-82" style="edgeStyle=orthogonalEdgeStyle;rounded=0;orthogonalLoop=1;jettySize=auto;html=1;exitX=0.5;exitY=1;exitDx=0;exitDy=0;" edge="1" parent="1" source="9seu_ElrW7bkLvOsGuvo-43" target="9seu_ElrW7bkLvOsGuvo-76">
          <mxGeometry relative="1" as="geometry" />
        </mxCell>
        <mxCell id="9seu_ElrW7bkLvOsGuvo-43" value="GlobalCanvasEntityNode" style="swimlane;fontStyle=1;align=center;verticalAlign=top;childLayout=stackLayout;horizontal=1;startSize=26;horizontalStack=0;resizeParent=1;resizeParentMax=0;resizeLast=0;collapsible=1;marginBottom=0;" vertex="1" parent="1">
          <mxGeometry x="-120" y="340" width="217" height="112" as="geometry" />
        </mxCell>
        <mxCell id="9seu_ElrW7bkLvOsGuvo-44" value="category = &#39;Entity&#39;" style="text;strokeColor=none;fillColor=none;align=left;verticalAlign=top;spacingLeft=4;spacingRight=4;overflow=hidden;rotatable=0;points=[[0,0.5],[1,0.5]];portConstraint=eastwest;" vertex="1" parent="9seu_ElrW7bkLvOsGuvo-43">
          <mxGeometry y="26" width="217" height="26" as="geometry" />
        </mxCell>
        <mxCell id="9seu_ElrW7bkLvOsGuvo-174" value="fieldCount: int" style="text;strokeColor=none;fillColor=none;align=left;verticalAlign=top;spacingLeft=4;spacingRight=4;overflow=hidden;rotatable=0;points=[[0,0.5],[1,0.5]];portConstraint=eastwest;fontSize=12;" vertex="1" parent="9seu_ElrW7bkLvOsGuvo-43">
          <mxGeometry y="52" width="217" height="26" as="geometry" />
        </mxCell>
        <mxCell id="9seu_ElrW7bkLvOsGuvo-169" value="node: ~ GlobalCanvasTypeNodeData" style="text;strokeColor=none;fillColor=none;align=left;verticalAlign=top;spacingLeft=4;spacingRight=4;overflow=hidden;rotatable=0;points=[[0,0.5],[1,0.5]];portConstraint=eastwest;fontSize=12;" vertex="1" parent="9seu_ElrW7bkLvOsGuvo-43">
          <mxGeometry y="78" width="217" height="26" as="geometry" />
        </mxCell>
        <mxCell id="9seu_ElrW7bkLvOsGuvo-45" value="" style="line;strokeWidth=1;fillColor=none;align=left;verticalAlign=middle;spacingTop=-1;spacingLeft=3;spacingRight=3;rotatable=0;labelPosition=right;points=[];portConstraint=eastwest;" vertex="1" parent="9seu_ElrW7bkLvOsGuvo-43">
          <mxGeometry y="104" width="217" height="8" as="geometry" />
        </mxCell>
        <mxCell id="9seu_ElrW7bkLvOsGuvo-50" value="GlobalCanvasSourceCollectionNode" style="swimlane;fontStyle=1;align=center;verticalAlign=top;childLayout=stackLayout;horizontal=1;startSize=26;horizontalStack=0;resizeParent=1;resizeParentMax=0;resizeLast=0;collapsible=1;marginBottom=0;" vertex="1" parent="1">
          <mxGeometry x="13.5" y="580" width="290" height="86" as="geometry" />
        </mxCell>
        <mxCell id="9seu_ElrW7bkLvOsGuvo-51" value="category = &#39;SourceCollection&#39;" style="text;strokeColor=none;fillColor=none;align=left;verticalAlign=top;spacingLeft=4;spacingRight=4;overflow=hidden;rotatable=0;points=[[0,0.5],[1,0.5]];portConstraint=eastwest;" vertex="1" parent="9seu_ElrW7bkLvOsGuvo-50">
          <mxGeometry y="26" width="290" height="26" as="geometry" />
        </mxCell>
        <mxCell id="9seu_ElrW7bkLvOsGuvo-178" value="node: ~ GlobalCanvasSourceCollectionNodeData" style="text;strokeColor=none;fillColor=none;align=left;verticalAlign=top;spacingLeft=4;spacingRight=4;overflow=hidden;rotatable=0;points=[[0,0.5],[1,0.5]];portConstraint=eastwest;fontSize=12;" vertex="1" parent="9seu_ElrW7bkLvOsGuvo-50">
          <mxGeometry y="52" width="290" height="26" as="geometry" />
        </mxCell>
        <mxCell id="9seu_ElrW7bkLvOsGuvo-52" value="" style="line;strokeWidth=1;fillColor=none;align=left;verticalAlign=middle;spacingTop=-1;spacingLeft=3;spacingRight=3;rotatable=0;labelPosition=right;points=[];portConstraint=eastwest;" vertex="1" parent="9seu_ElrW7bkLvOsGuvo-50">
          <mxGeometry y="78" width="290" height="8" as="geometry" />
        </mxCell>
        <mxCell id="9seu_ElrW7bkLvOsGuvo-56" value="GlobalCanvasTransformNode" style="swimlane;fontStyle=1;align=center;verticalAlign=top;childLayout=stackLayout;horizontal=1;startSize=26;horizontalStack=0;resizeParent=1;resizeParentMax=0;resizeLast=0;collapsible=1;marginBottom=0;" vertex="1" parent="1">
          <mxGeometry x="-260" y="250" width="180" height="60" as="geometry" />
        </mxCell>
        <mxCell id="9seu_ElrW7bkLvOsGuvo-57" value="category = &#39;Transform&#39;" style="text;strokeColor=none;fillColor=none;align=left;verticalAlign=top;spacingLeft=4;spacingRight=4;overflow=hidden;rotatable=0;points=[[0,0.5],[1,0.5]];portConstraint=eastwest;" vertex="1" parent="9seu_ElrW7bkLvOsGuvo-56">
          <mxGeometry y="26" width="180" height="26" as="geometry" />
        </mxCell>
        <mxCell id="9seu_ElrW7bkLvOsGuvo-58" value="" style="line;strokeWidth=1;fillColor=none;align=left;verticalAlign=middle;spacingTop=-1;spacingLeft=3;spacingRight=3;rotatable=0;labelPosition=right;points=[];portConstraint=eastwest;" vertex="1" parent="9seu_ElrW7bkLvOsGuvo-56">
          <mxGeometry y="52" width="180" height="8" as="geometry" />
        </mxCell>
        <mxCell id="9seu_ElrW7bkLvOsGuvo-187" style="edgeStyle=orthogonalEdgeStyle;rounded=0;orthogonalLoop=1;jettySize=auto;html=1;exitX=1;exitY=0.75;exitDx=0;exitDy=0;entryX=0.034;entryY=0.186;entryDx=0;entryDy=0;entryPerimeter=0;fontSize=12;" edge="1" parent="1" source="9seu_ElrW7bkLvOsGuvo-76" target="9seu_ElrW7bkLvOsGuvo-180">
          <mxGeometry relative="1" as="geometry" />
        </mxCell>
        <mxCell id="9seu_ElrW7bkLvOsGuvo-76" value="GlobalCanvasSourceSystemNode" style="swimlane;fontStyle=1;align=center;verticalAlign=top;childLayout=stackLayout;horizontal=1;startSize=26;horizontalStack=0;resizeParent=1;resizeParentMax=0;resizeLast=0;collapsible=1;marginBottom=0;" vertex="1" parent="1">
          <mxGeometry x="360" y="484" width="290" height="86" as="geometry" />
        </mxCell>
        <mxCell id="9seu_ElrW7bkLvOsGuvo-77" value="category = &#39;SourceCollection&#39;" style="text;strokeColor=none;fillColor=none;align=left;verticalAlign=top;spacingLeft=4;spacingRight=4;overflow=hidden;rotatable=0;points=[[0,0.5],[1,0.5]];portConstraint=eastwest;" vertex="1" parent="9seu_ElrW7bkLvOsGuvo-76">
          <mxGeometry y="26" width="290" height="26" as="geometry" />
        </mxCell>
        <mxCell id="9seu_ElrW7bkLvOsGuvo-185" value="node: ~ GlobalCanvasSourceSystemNodeData" style="text;strokeColor=none;fillColor=none;align=left;verticalAlign=top;spacingLeft=4;spacingRight=4;overflow=hidden;rotatable=0;points=[[0,0.5],[1,0.5]];portConstraint=eastwest;fontSize=12;" vertex="1" parent="9seu_ElrW7bkLvOsGuvo-76">
          <mxGeometry y="52" width="290" height="26" as="geometry" />
        </mxCell>
        <mxCell id="9seu_ElrW7bkLvOsGuvo-78" value="" style="line;strokeWidth=1;fillColor=none;align=left;verticalAlign=middle;spacingTop=-1;spacingLeft=3;spacingRight=3;rotatable=0;labelPosition=right;points=[];portConstraint=eastwest;" vertex="1" parent="9seu_ElrW7bkLvOsGuvo-76">
          <mxGeometry y="78" width="290" height="8" as="geometry" />
        </mxCell>
        <mxCell id="9seu_ElrW7bkLvOsGuvo-83" value="Added as seed data" style="text;html=1;strokeColor=none;fillColor=none;align=center;verticalAlign=middle;whiteSpace=wrap;rounded=0;" vertex="1" parent="1">
          <mxGeometry x="485" y="70" width="145" height="20" as="geometry" />
        </mxCell>
        <mxCell id="9seu_ElrW7bkLvOsGuvo-85" value="UiDiagramNode" style="swimlane;fontStyle=1;align=center;verticalAlign=top;childLayout=stackLayout;horizontal=1;startSize=26;horizontalStack=0;resizeParent=1;resizeParentMax=0;resizeLast=0;collapsible=1;marginBottom=0;" vertex="1" parent="1">
          <mxGeometry x="10" y="950" width="310" height="268" as="geometry" />
        </mxCell>
        <mxCell id="9seu_ElrW7bkLvOsGuvo-106" value="shapeType: &quot;Node&quot;" style="text;strokeColor=none;fillColor=none;align=left;verticalAlign=top;spacingLeft=4;spacingRight=4;overflow=hidden;rotatable=0;points=[[0,0.5],[1,0.5]];portConstraint=eastwest;fontSize=12;" vertex="1" parent="9seu_ElrW7bkLvOsGuvo-85">
          <mxGeometry y="26" width="310" height="26" as="geometry" />
        </mxCell>
        <mxCell id="9seu_ElrW7bkLvOsGuvo-86" value="name: string" style="text;strokeColor=none;fillColor=none;align=left;verticalAlign=top;spacingLeft=4;spacingRight=4;overflow=hidden;rotatable=0;points=[[0,0.5],[1,0.5]];portConstraint=eastwest;" vertex="1" parent="9seu_ElrW7bkLvOsGuvo-85">
          <mxGeometry y="52" width="310" height="26" as="geometry" />
        </mxCell>
        <mxCell id="9seu_ElrW7bkLvOsGuvo-90" value="id: string" style="text;strokeColor=none;fillColor=none;align=left;verticalAlign=top;spacingLeft=4;spacingRight=4;overflow=hidden;rotatable=0;points=[[0,0.5],[1,0.5]];portConstraint=eastwest;" vertex="1" parent="9seu_ElrW7bkLvOsGuvo-85">
          <mxGeometry y="78" width="310" height="26" as="geometry" />
        </mxCell>
        <mxCell id="9seu_ElrW7bkLvOsGuvo-121" value="minimized: boolean" style="text;strokeColor=none;fillColor=none;align=left;verticalAlign=top;spacingLeft=4;spacingRight=4;overflow=hidden;rotatable=0;points=[[0,0.5],[1,0.5]];portConstraint=eastwest;fontSize=12;" vertex="1" parent="9seu_ElrW7bkLvOsGuvo-85">
          <mxGeometry y="104" width="310" height="26" as="geometry" />
        </mxCell>
        <mxCell id="9seu_ElrW7bkLvOsGuvo-123" value="geometry: Geometry" style="text;strokeColor=none;fillColor=none;align=left;verticalAlign=top;spacingLeft=4;spacingRight=4;overflow=hidden;rotatable=0;points=[[0,0.5],[1,0.5]];portConstraint=eastwest;fontSize=12;" vertex="1" parent="9seu_ElrW7bkLvOsGuvo-85">
          <mxGeometry y="130" width="310" height="26" as="geometry" />
        </mxCell>
        <mxCell id="9seu_ElrW7bkLvOsGuvo-124" value="children: [UiDiagramNodeChild] " style="text;strokeColor=none;fillColor=none;align=left;verticalAlign=top;spacingLeft=4;spacingRight=4;overflow=hidden;rotatable=0;points=[[0,0.5],[1,0.5]];portConstraint=eastwest;fontSize=12;" vertex="1" parent="9seu_ElrW7bkLvOsGuvo-85">
          <mxGeometry y="156" width="310" height="26" as="geometry" />
        </mxCell>
        <mxCell id="9seu_ElrW7bkLvOsGuvo-87" value="" style="line;strokeWidth=1;fillColor=none;align=left;verticalAlign=middle;spacingTop=-1;spacingLeft=3;spacingRight=3;rotatable=0;labelPosition=right;points=[];portConstraint=eastwest;" vertex="1" parent="9seu_ElrW7bkLvOsGuvo-85">
          <mxGeometry y="182" width="310" height="8" as="geometry" />
        </mxCell>
        <mxCell id="9seu_ElrW7bkLvOsGuvo-88" value="subtitle: string" style="text;strokeColor=none;fillColor=none;align=left;verticalAlign=top;spacingLeft=4;spacingRight=4;overflow=hidden;rotatable=0;points=[[0,0.5],[1,0.5]];portConstraint=eastwest;" vertex="1" parent="9seu_ElrW7bkLvOsGuvo-85">
          <mxGeometry y="190" width="310" height="26" as="geometry" />
        </mxCell>
        <mxCell id="9seu_ElrW7bkLvOsGuvo-89" value="subtitleTooltip: string" style="text;strokeColor=none;fillColor=none;align=left;verticalAlign=top;spacingLeft=4;spacingRight=4;overflow=hidden;rotatable=0;points=[[0,0.5],[1,0.5]];portConstraint=eastwest;" vertex="1" parent="9seu_ElrW7bkLvOsGuvo-85">
          <mxGeometry y="216" width="310" height="26" as="geometry" />
        </mxCell>
        <mxCell id="9seu_ElrW7bkLvOsGuvo-91" value="category: string serialized GlobalCanvasNodeCategory" style="text;strokeColor=none;fillColor=none;align=left;verticalAlign=top;spacingLeft=4;spacingRight=4;overflow=hidden;rotatable=0;points=[[0,0.5],[1,0.5]];portConstraint=eastwest;" vertex="1" parent="9seu_ElrW7bkLvOsGuvo-85">
          <mxGeometry y="242" width="310" height="26" as="geometry" />
        </mxCell>
        <mxCell id="9seu_ElrW7bkLvOsGuvo-92" value="Diagram" style="text;html=1;strokeColor=none;fillColor=none;align=center;verticalAlign=middle;whiteSpace=wrap;rounded=0;fontStyle=1;fontSize=21;" vertex="1" parent="1">
          <mxGeometry x="310" y="680" width="210" height="20" as="geometry" />
        </mxCell>
        <mxCell id="9seu_ElrW7bkLvOsGuvo-97" value="UiDiagramEdge" style="swimlane;fontStyle=1;align=center;verticalAlign=top;childLayout=stackLayout;horizontal=1;startSize=26;horizontalStack=0;resizeParent=1;resizeParentMax=0;resizeLast=0;collapsible=1;marginBottom=0;fontSize=12;" vertex="1" parent="1">
          <mxGeometry x="350" y="950" width="160" height="86" as="geometry" />
        </mxCell>
        <mxCell id="9seu_ElrW7bkLvOsGuvo-105" value="shapeType: &quot;Edge&quot;" style="text;strokeColor=none;fillColor=none;align=left;verticalAlign=top;spacingLeft=4;spacingRight=4;overflow=hidden;rotatable=0;points=[[0,0.5],[1,0.5]];portConstraint=eastwest;fontSize=12;" vertex="1" parent="9seu_ElrW7bkLvOsGuvo-97">
          <mxGeometry y="26" width="160" height="26" as="geometry" />
        </mxCell>
        <mxCell id="9seu_ElrW7bkLvOsGuvo-99" value="" style="line;strokeWidth=1;fillColor=none;align=left;verticalAlign=middle;spacingTop=-1;spacingLeft=3;spacingRight=3;rotatable=0;labelPosition=right;points=[];portConstraint=eastwest;" vertex="1" parent="9seu_ElrW7bkLvOsGuvo-97">
          <mxGeometry y="52" width="160" height="8" as="geometry" />
        </mxCell>
        <mxCell id="9seu_ElrW7bkLvOsGuvo-100" value="relationship: enum" style="text;strokeColor=none;fillColor=none;align=left;verticalAlign=top;spacingLeft=4;spacingRight=4;overflow=hidden;rotatable=0;points=[[0,0.5],[1,0.5]];portConstraint=eastwest;" vertex="1" parent="9seu_ElrW7bkLvOsGuvo-97">
          <mxGeometry y="60" width="160" height="26" as="geometry" />
        </mxCell>
        <mxCell id="9seu_ElrW7bkLvOsGuvo-107" style="edgeStyle=orthogonalEdgeStyle;rounded=0;orthogonalLoop=1;jettySize=auto;html=1;entryX=0.545;entryY=-0.011;entryDx=0;entryDy=0;entryPerimeter=0;fontSize=12;" edge="1" parent="1" source="9seu_ElrW7bkLvOsGuvo-101" target="9seu_ElrW7bkLvOsGuvo-85">
          <mxGeometry relative="1" as="geometry" />
        </mxCell>
        <mxCell id="9seu_ElrW7bkLvOsGuvo-108" style="edgeStyle=orthogonalEdgeStyle;rounded=0;orthogonalLoop=1;jettySize=auto;html=1;exitX=0.5;exitY=1;exitDx=0;exitDy=0;entryX=0.5;entryY=0;entryDx=0;entryDy=0;fontSize=12;" edge="1" parent="1" source="9seu_ElrW7bkLvOsGuvo-101" target="9seu_ElrW7bkLvOsGuvo-97">
          <mxGeometry relative="1" as="geometry" />
        </mxCell>
        <mxCell id="9seu_ElrW7bkLvOsGuvo-101" value="UiDiagramShape" style="swimlane;fontStyle=1;align=center;verticalAlign=top;childLayout=stackLayout;horizontal=1;startSize=26;horizontalStack=0;resizeParent=1;resizeParentMax=0;resizeLast=0;collapsible=1;marginBottom=0;fontSize=12;" vertex="1" parent="1">
          <mxGeometry x="210" y="750" width="160" height="86" as="geometry" />
        </mxCell>
        <mxCell id="9seu_ElrW7bkLvOsGuvo-102" value="shapeType" style="text;strokeColor=none;fillColor=none;align=left;verticalAlign=top;spacingLeft=4;spacingRight=4;overflow=hidden;rotatable=0;points=[[0,0.5],[1,0.5]];portConstraint=eastwest;" vertex="1" parent="9seu_ElrW7bkLvOsGuvo-101">
          <mxGeometry y="26" width="160" height="26" as="geometry" />
        </mxCell>
        <mxCell id="9seu_ElrW7bkLvOsGuvo-103" value="" style="line;strokeWidth=1;fillColor=none;align=left;verticalAlign=middle;spacingTop=-1;spacingLeft=3;spacingRight=3;rotatable=0;labelPosition=right;points=[];portConstraint=eastwest;" vertex="1" parent="9seu_ElrW7bkLvOsGuvo-101">
          <mxGeometry y="52" width="160" height="8" as="geometry" />
        </mxCell>
        <mxCell id="9seu_ElrW7bkLvOsGuvo-104" value="visible: boolean" style="text;strokeColor=none;fillColor=none;align=left;verticalAlign=top;spacingLeft=4;spacingRight=4;overflow=hidden;rotatable=0;points=[[0,0.5],[1,0.5]];portConstraint=eastwest;" vertex="1" parent="9seu_ElrW7bkLvOsGuvo-101">
          <mxGeometry y="60" width="160" height="26" as="geometry" />
        </mxCell>
        <mxCell id="9seu_ElrW7bkLvOsGuvo-113" value="&lt;div&gt;Diagram Props&lt;br&gt;&lt;/div&gt;&lt;ul&gt;&lt;li&gt;nodes: [UiDiagramNode]&lt;/li&gt;&lt;li&gt;edges: [UiDiagramEdge]&lt;/li&gt;&lt;li&gt;nodeCategoryStyling: map&amp;lt;category, icon&amp;amp;color&amp;gt;&lt;/li&gt;&lt;li&gt;nodeContextMenus: [UiDiagramNodeMenuItem] // can be category based in the future&lt;br&gt;&lt;/li&gt;&lt;/ul&gt;" style="text;html=1;strokeColor=none;fillColor=none;align=left;verticalAlign=top;whiteSpace=wrap;rounded=0;fontSize=12;" vertex="1" parent="1">
          <mxGeometry x="530" y="696" width="310" height="110" as="geometry" />
        </mxCell>
        <mxCell id="9seu_ElrW7bkLvOsGuvo-118" value="&lt;div&gt;CanvasToDiagramTransform&lt;/div&gt;&lt;div&gt;&lt;ul&gt;&lt;li&gt;Loops through nodes to convert to UiDiagramNode with custom transform per category&lt;/li&gt;&lt;ul&gt;&lt;li&gt;Entity -&amp;gt; EntityGraphNodeToDiagram&lt;/li&gt;&lt;li&gt;Can use pluggable and then `accept` API&lt;/li&gt;&lt;/ul&gt;&lt;li&gt;Entity transform populate UiDiagramChildNode based on `fields` in Type&lt;br&gt;&lt;/li&gt;&lt;/ul&gt;&lt;ul&gt;&lt;li&gt;Loops through edges &lt;br&gt;&lt;/li&gt;&lt;/ul&gt;&lt;/div&gt;" style="text;html=1;strokeColor=none;fillColor=none;align=left;verticalAlign=top;whiteSpace=wrap;rounded=0;fontSize=12;" vertex="1" parent="1">
          <mxGeometry x="550" y="819" width="430" height="174" as="geometry" />
        </mxCell>
        <mxCell id="9seu_ElrW7bkLvOsGuvo-122" value="&lt;div align=&quot;left&quot;&gt;UiSdiDiagramReact.updateNodesWithComponent is driven by minimized. In the future, it can be driven by category but so far all nodes seem fairly standard &lt;/div&gt;" style="text;html=1;strokeColor=none;fillColor=none;align=left;verticalAlign=middle;whiteSpace=wrap;rounded=0;fontSize=12;" vertex="1" parent="1">
          <mxGeometry x="610" y="1020" width="380" height="40" as="geometry" />
        </mxCell>
        <mxCell id="9seu_ElrW7bkLvOsGuvo-134" value="UiDiagramNodeChild" style="swimlane;fontStyle=1;align=center;verticalAlign=top;childLayout=stackLayout;horizontal=1;startSize=26;horizontalStack=0;resizeParent=1;resizeParentMax=0;resizeLast=0;collapsible=1;marginBottom=0;fontSize=12;" vertex="1" parent="1">
          <mxGeometry x="360" y="1139" width="380" height="138" as="geometry" />
        </mxCell>
        <mxCell id="9seu_ElrW7bkLvOsGuvo-135" value="id: string" style="text;strokeColor=none;fillColor=none;align=left;verticalAlign=top;spacingLeft=4;spacingRight=4;overflow=hidden;rotatable=0;points=[[0,0.5],[1,0.5]];portConstraint=eastwest;" vertex="1" parent="9seu_ElrW7bkLvOsGuvo-134">
          <mxGeometry y="26" width="380" height="26" as="geometry" />
        </mxCell>
        <mxCell id="9seu_ElrW7bkLvOsGuvo-138" value="name: string" style="text;strokeColor=none;fillColor=none;align=left;verticalAlign=top;spacingLeft=4;spacingRight=4;overflow=hidden;rotatable=0;points=[[0,0.5],[1,0.5]];portConstraint=eastwest;fontSize=12;" vertex="1" parent="9seu_ElrW7bkLvOsGuvo-134">
          <mxGeometry y="52" width="380" height="26" as="geometry" />
        </mxCell>
        <mxCell id="9seu_ElrW7bkLvOsGuvo-139" value="subtitle: string" style="text;strokeColor=none;fillColor=none;align=left;verticalAlign=top;spacingLeft=4;spacingRight=4;overflow=hidden;rotatable=0;points=[[0,0.5],[1,0.5]];portConstraint=eastwest;fontSize=12;" vertex="1" parent="9seu_ElrW7bkLvOsGuvo-134">
          <mxGeometry y="78" width="380" height="26" as="geometry" />
        </mxCell>
        <mxCell id="9seu_ElrW7bkLvOsGuvo-136" value="" style="line;strokeWidth=1;fillColor=none;align=left;verticalAlign=middle;spacingTop=-1;spacingLeft=3;spacingRight=3;rotatable=0;labelPosition=right;points=[];portConstraint=eastwest;" vertex="1" parent="9seu_ElrW7bkLvOsGuvo-134">
          <mxGeometry y="104" width="380" height="8" as="geometry" />
        </mxCell>
        <mxCell id="9seu_ElrW7bkLvOsGuvo-137" value="category: string serialized GlobalCanvasNodeChildCategory" style="text;strokeColor=none;fillColor=none;align=left;verticalAlign=top;spacingLeft=4;spacingRight=4;overflow=hidden;rotatable=0;points=[[0,0.5],[1,0.5]];portConstraint=eastwest;" vertex="1" parent="9seu_ElrW7bkLvOsGuvo-134">
          <mxGeometry y="112" width="380" height="26" as="geometry" />
        </mxCell>
        <mxCell id="9seu_ElrW7bkLvOsGuvo-141" style="edgeStyle=orthogonalEdgeStyle;rounded=0;orthogonalLoop=1;jettySize=auto;html=1;exitX=1;exitY=0.5;exitDx=0;exitDy=0;entryX=0.5;entryY=0;entryDx=0;entryDy=0;fontSize=12;" edge="1" parent="1" source="9seu_ElrW7bkLvOsGuvo-124" target="9seu_ElrW7bkLvOsGuvo-134">
          <mxGeometry relative="1" as="geometry" />
        </mxCell>
        <mxCell id="9seu_ElrW7bkLvOsGuvo-144" value="GlobalCanvasEdge" style="swimlane;fontStyle=1;align=center;verticalAlign=top;childLayout=stackLayout;horizontal=1;startSize=26;horizontalStack=0;resizeParent=1;resizeParentMax=0;resizeLast=0;collapsible=1;marginBottom=0;fontSize=12;" vertex="1" parent="1">
          <mxGeometry x="-330" y="60" width="160" height="86" as="geometry" />
        </mxCell>
        <mxCell id="9seu_ElrW7bkLvOsGuvo-145" value="id: string" style="text;strokeColor=none;fillColor=none;align=left;verticalAlign=top;spacingLeft=4;spacingRight=4;overflow=hidden;rotatable=0;points=[[0,0.5],[1,0.5]];portConstraint=eastwest;" vertex="1" parent="9seu_ElrW7bkLvOsGuvo-144">
          <mxGeometry y="26" width="160" height="26" as="geometry" />
        </mxCell>
        <mxCell id="9seu_ElrW7bkLvOsGuvo-149" value="relationship: string" style="text;strokeColor=none;fillColor=none;align=left;verticalAlign=top;spacingLeft=4;spacingRight=4;overflow=hidden;rotatable=0;points=[[0,0.5],[1,0.5]];portConstraint=eastwest;fontSize=12;" vertex="1" parent="9seu_ElrW7bkLvOsGuvo-144">
          <mxGeometry y="52" width="160" height="26" as="geometry" />
        </mxCell>
        <mxCell id="9seu_ElrW7bkLvOsGuvo-146" value="" style="line;strokeWidth=1;fillColor=none;align=left;verticalAlign=middle;spacingTop=-1;spacingLeft=3;spacingRight=3;rotatable=0;labelPosition=right;points=[];portConstraint=eastwest;" vertex="1" parent="9seu_ElrW7bkLvOsGuvo-144">
          <mxGeometry y="78" width="160" height="8" as="geometry" />
        </mxCell>
        <mxCell id="9seu_ElrW7bkLvOsGuvo-150" value="relationshp is not populated when it is a node level edge (intiial render). When fields are expanded, the app state logic needs to remove this placeholder edge and add the ones that have`fromInfo` and `toInfo`" style="text;html=1;strokeColor=none;fillColor=none;align=left;verticalAlign=middle;whiteSpace=wrap;rounded=0;fontSize=12;" vertex="1" parent="1">
          <mxGeometry x="-440" y="140" width="240" height="110" as="geometry" />
        </mxCell>
        <mxCell id="9seu_ElrW7bkLvOsGuvo-151" value="Common Graph Model (State)" style="text;html=1;strokeColor=none;fillColor=none;align=center;verticalAlign=middle;whiteSpace=wrap;rounded=0;fontSize=21;fontStyle=1" vertex="1" parent="1">
          <mxGeometry x="223" y="50" width="247" height="20" as="geometry" />
        </mxCell>
        <mxCell id="9seu_ElrW7bkLvOsGuvo-154" value="&lt;div&gt;Common State will hold reference to this graph and the &quot;node details&quot; &lt;br&gt;&lt;/div&gt;&lt;div&gt;The &quot;node details&quot; can either be will be a flat &lt;br&gt;&lt;/div&gt;" style="text;html=1;strokeColor=none;fillColor=none;align=left;verticalAlign=top;whiteSpace=wrap;rounded=0;fontSize=12;" vertex="1" parent="1">
          <mxGeometry x="750" y="40" width="260" height="60" as="geometry" />
        </mxCell>
        <mxCell id="9seu_ElrW7bkLvOsGuvo-167" style="edgeStyle=orthogonalEdgeStyle;rounded=0;orthogonalLoop=1;jettySize=auto;html=1;entryX=0.5;entryY=0;entryDx=0;entryDy=0;fontSize=12;" edge="1" parent="1" source="9seu_ElrW7bkLvOsGuvo-157" target="9seu_ElrW7bkLvOsGuvo-162">
          <mxGeometry relative="1" as="geometry" />
        </mxCell>
        <mxCell id="9seu_ElrW7bkLvOsGuvo-157" value="GlobalCanvasNodeData" style="swimlane;fontStyle=1;align=center;verticalAlign=top;childLayout=stackLayout;horizontal=1;startSize=26;horizontalStack=0;resizeParent=1;resizeParentMax=0;resizeLast=0;collapsible=1;marginBottom=0;fontSize=12;" vertex="1" parent="1">
          <mxGeometry x="266.5" y="240" width="160" height="60" as="geometry" />
        </mxCell>
        <mxCell id="9seu_ElrW7bkLvOsGuvo-158" value="name: string" style="text;strokeColor=none;fillColor=none;align=left;verticalAlign=top;spacingLeft=4;spacingRight=4;overflow=hidden;rotatable=0;points=[[0,0.5],[1,0.5]];portConstraint=eastwest;" vertex="1" parent="9seu_ElrW7bkLvOsGuvo-157">
          <mxGeometry y="26" width="160" height="26" as="geometry" />
        </mxCell>
        <mxCell id="9seu_ElrW7bkLvOsGuvo-159" value="" style="line;strokeWidth=1;fillColor=none;align=left;verticalAlign=middle;spacingTop=-1;spacingLeft=3;spacingRight=3;rotatable=0;labelPosition=right;points=[];portConstraint=eastwest;" vertex="1" parent="9seu_ElrW7bkLvOsGuvo-157">
          <mxGeometry y="52" width="160" height="8" as="geometry" />
        </mxCell>
        <mxCell id="9seu_ElrW7bkLvOsGuvo-193" style="edgeStyle=orthogonalEdgeStyle;rounded=0;orthogonalLoop=1;jettySize=auto;html=1;exitX=1;exitY=0.25;exitDx=0;exitDy=0;entryX=0.5;entryY=0;entryDx=0;entryDy=0;fontSize=12;" edge="1" parent="1" source="9seu_ElrW7bkLvOsGuvo-162" target="9seu_ElrW7bkLvOsGuvo-17">
          <mxGeometry relative="1" as="geometry" />
        </mxCell>
        <mxCell id="9seu_ElrW7bkLvOsGuvo-162" value="GlobalCanvasTypeNodeData" style="swimlane;fontStyle=1;align=center;verticalAlign=top;childLayout=stackLayout;horizontal=1;startSize=26;horizontalStack=0;resizeParent=1;resizeParentMax=0;resizeLast=0;collapsible=1;marginBottom=0;fontSize=12;" vertex="1" parent="1">
          <mxGeometry x="251.5" y="330" width="190" height="34" as="geometry" />
        </mxCell>
        <mxCell id="9seu_ElrW7bkLvOsGuvo-177" style="edgeStyle=orthogonalEdgeStyle;rounded=0;orthogonalLoop=1;jettySize=auto;html=1;exitX=0.5;exitY=0;exitDx=0;exitDy=0;entryX=1;entryY=0.25;entryDx=0;entryDy=0;fontSize=12;" edge="1" parent="1" source="9seu_ElrW7bkLvOsGuvo-170" target="9seu_ElrW7bkLvOsGuvo-157">
          <mxGeometry relative="1" as="geometry" />
        </mxCell>
        <mxCell id="9seu_ElrW7bkLvOsGuvo-170" value="GlobalCanvasSourceCollectionNodeData" style="swimlane;fontStyle=1;align=center;verticalAlign=top;childLayout=stackLayout;horizontal=1;startSize=26;horizontalStack=0;resizeParent=1;resizeParentMax=0;resizeLast=0;collapsible=1;marginBottom=0;fontSize=12;" vertex="1" parent="1">
          <mxGeometry x="790" y="250" width="290" height="112" as="geometry" />
        </mxCell>
        <mxCell id="9seu_ElrW7bkLvOsGuvo-73" value="instanceId: string" style="text;strokeColor=none;fillColor=none;align=left;verticalAlign=top;spacingLeft=4;spacingRight=4;overflow=hidden;rotatable=0;points=[[0,0.5],[1,0.5]];portConstraint=eastwest;" vertex="1" parent="9seu_ElrW7bkLvOsGuvo-170">
          <mxGeometry y="26" width="290" height="26" as="geometry" />
        </mxCell>
        <mxCell id="9seu_ElrW7bkLvOsGuvo-74" value="instanceName: string" style="text;strokeColor=none;fillColor=none;align=left;verticalAlign=top;spacingLeft=4;spacingRight=4;overflow=hidden;rotatable=0;points=[[0,0.5],[1,0.5]];portConstraint=eastwest;" vertex="1" parent="9seu_ElrW7bkLvOsGuvo-170">
          <mxGeometry y="52" width="290" height="26" as="geometry" />
        </mxCell>
        <mxCell id="9seu_ElrW7bkLvOsGuvo-75" value="sourceCategory: string enum" style="text;strokeColor=none;fillColor=none;align=left;verticalAlign=top;spacingLeft=4;spacingRight=4;overflow=hidden;rotatable=0;points=[[0,0.5],[1,0.5]];portConstraint=eastwest;" vertex="1" parent="9seu_ElrW7bkLvOsGuvo-170">
          <mxGeometry y="78" width="290" height="26" as="geometry" />
        </mxCell>
        <mxCell id="9seu_ElrW7bkLvOsGuvo-172" value="" style="line;strokeWidth=1;fillColor=none;align=left;verticalAlign=middle;spacingTop=-1;spacingLeft=3;spacingRight=3;rotatable=0;labelPosition=right;points=[];portConstraint=eastwest;" vertex="1" parent="9seu_ElrW7bkLvOsGuvo-170">
          <mxGeometry y="104" width="290" height="8" as="geometry" />
        </mxCell>
        <mxCell id="9seu_ElrW7bkLvOsGuvo-175" style="edgeStyle=orthogonalEdgeStyle;rounded=0;orthogonalLoop=1;jettySize=auto;html=1;exitX=1;exitY=0.5;exitDx=0;exitDy=0;entryX=0;entryY=0.5;entryDx=0;entryDy=0;fontSize=12;" edge="1" parent="1" source="9seu_ElrW7bkLvOsGuvo-169" target="9seu_ElrW7bkLvOsGuvo-162">
          <mxGeometry relative="1" as="geometry" />
        </mxCell>
        <mxCell id="9seu_ElrW7bkLvOsGuvo-180" value="GlobalCanvasSourceSystemNodeData" style="swimlane;fontStyle=1;align=center;verticalAlign=top;childLayout=stackLayout;horizontal=1;startSize=26;horizontalStack=0;resizeParent=1;resizeParentMax=0;resizeLast=0;collapsible=1;marginBottom=0;fontSize=12;" vertex="1" parent="1">
          <mxGeometry x="760" y="484" width="290" height="86" as="geometry" />
        </mxCell>
        <mxCell id="9seu_ElrW7bkLvOsGuvo-181" value="instanceId: string" style="text;strokeColor=none;fillColor=none;align=left;verticalAlign=top;spacingLeft=4;spacingRight=4;overflow=hidden;rotatable=0;points=[[0,0.5],[1,0.5]];portConstraint=eastwest;" vertex="1" parent="9seu_ElrW7bkLvOsGuvo-180">
          <mxGeometry y="26" width="290" height="26" as="geometry" />
        </mxCell>
        <mxCell id="9seu_ElrW7bkLvOsGuvo-182" value="instanceName: string" style="text;strokeColor=none;fillColor=none;align=left;verticalAlign=top;spacingLeft=4;spacingRight=4;overflow=hidden;rotatable=0;points=[[0,0.5],[1,0.5]];portConstraint=eastwest;" vertex="1" parent="9seu_ElrW7bkLvOsGuvo-180">
          <mxGeometry y="52" width="290" height="26" as="geometry" />
        </mxCell>
        <mxCell id="9seu_ElrW7bkLvOsGuvo-184" value="" style="line;strokeWidth=1;fillColor=none;align=left;verticalAlign=middle;spacingTop=-1;spacingLeft=3;spacingRight=3;rotatable=0;labelPosition=right;points=[];portConstraint=eastwest;" vertex="1" parent="9seu_ElrW7bkLvOsGuvo-180">
          <mxGeometry y="78" width="290" height="8" as="geometry" />
        </mxCell>
        <mxCell id="9seu_ElrW7bkLvOsGuvo-186" style="edgeStyle=orthogonalEdgeStyle;rounded=0;orthogonalLoop=1;jettySize=auto;html=1;exitX=1;exitY=0.5;exitDx=0;exitDy=0;entryX=-0.003;entryY=0.125;entryDx=0;entryDy=0;entryPerimeter=0;fontSize=12;" edge="1" parent="1" source="9seu_ElrW7bkLvOsGuvo-178" target="9seu_ElrW7bkLvOsGuvo-170">
          <mxGeometry relative="1" as="geometry" />
        </mxCell>
        <mxCell id="9seu_ElrW7bkLvOsGuvo-188" style="edgeStyle=orthogonalEdgeStyle;rounded=0;orthogonalLoop=1;jettySize=auto;html=1;exitX=0;exitY=0.5;exitDx=0;exitDy=0;entryX=1;entryY=0.25;entryDx=0;entryDy=0;fontSize=12;" edge="1" parent="1" source="9seu_ElrW7bkLvOsGuvo-10" target="9seu_ElrW7bkLvOsGuvo-1">
          <mxGeometry relative="1" as="geometry" />
        </mxCell>
      </root>
    </mxGraphModel>
  </diagram>
</mxfile>
